<svg width="28" height="28" viewBox="0 0 28 28" fill="none" xmlns="http://www.w3.org/2000/svg">
<path d="M1.77169 12C1.76404 12 1.7564 12 1.74723 12C0.782661 12 0 12.8941 0 14C0 15.1059 0.781132 16 1.74723 16C1.7564 16 1.76404 16 1.77322 16H26.2283C26.236 16 26.2436 16 26.2528 16C27.2173 16 28 15.1059 28 14C28 12.8941 27.2189 12 26.2528 12C26.2436 12 26.236 12 26.2268 12H1.77169Z" fill="white"/>
<path d="M16 1.77169C16 1.76404 16 1.7564 16 1.74723C16 0.782661 15.1059 0 14 0C12.8941 0 12 0.781132 12 1.74723C12 1.7564 12 1.76404 12 1.77322V1.77169V26.2283C12 26.236 12 26.2436 12 26.2528C12 27.2173 12.8941 28 14 28C15.1059 28 16 27.2189 16 26.2528C16 26.2436 16 26.236 16 26.2268V26.2283V1.77169Z" fill="white"/>
</svg>
