<svg width="20" height="20" viewBox="0 0 20 20" fill="none" xmlns="http://www.w3.org/2000/svg">
<path d="M19.5264 17.2325L13.8553 11.5649C14.8538 10.0046 15.2406 8.13076 14.9416 6.30292C14.6426 4.47508 13.6787 2.82196 12.235 1.66071C10.7913 0.499471 8.96942 -0.0881056 7.11885 0.0107123C5.26828 0.10953 3.51939 0.887783 2.20772 2.19616C0.896038 3.50454 0.113952 5.25089 0.0115068 7.10017C-0.0909385 8.94944 0.493472 10.7714 1.65261 12.2165C2.81176 13.6616 4.464 14.628 6.29234 14.9304C8.12068 15.2328 9.99636 14.8498 11.5595 13.8549L17.235 19.527C17.5392 19.8299 17.9512 20 18.3807 20C18.8101 20 19.2221 19.8299 19.5264 19.527C19.8297 19.2222 20 18.8097 20 18.3798C20 17.9499 19.8297 17.5374 19.5264 17.2325ZM11.241 11.0742L11.1614 11.1626L11.0729 11.2466C10.1209 12.1591 8.85316 12.6691 7.53406 12.6701H7.48098C6.46629 12.6605 5.47709 12.3514 4.63759 11.7817C3.7981 11.212 3.14574 10.4071 2.76245 9.46814C2.37916 8.52915 2.28203 7.4979 2.48325 6.50391C2.68448 5.50992 3.17508 4.59751 3.89346 3.88127C4.86389 2.98543 6.14172 2.49664 7.46265 2.51599C8.78357 2.53534 10.0465 3.06135 10.9903 3.98523C11.934 4.90911 12.4863 6.16016 12.533 7.47962C12.5797 8.79908 12.1171 10.086 11.241 11.0742Z" fill="white"/>
</svg>
