<svg width="42" height="17" viewBox="0 0 42 17" fill="none" xmlns="http://www.w3.org/2000/svg">
<path d="M2.61035 17H0.219727L5.55469 4.43164H8.05957L13.5088 17H11.0039L9.57129 13.5723H5.39648L6.19629 11.5508H8.72754L6.75 6.83105L2.61035 17ZM19.9688 14.9785C22.5762 14.9785 23.8799 13.4434 23.8799 10.373C23.8799 7.75977 22.5762 6.45312 19.9688 6.45312H17.376V14.9785H19.9688ZM15.0469 17V4.43164H19.9688C24.1289 4.43164 26.209 6.41211 26.209 10.373C26.209 14.791 24.1289 17 19.9688 17H15.0469Z" fill="white"/>
<path d="M31.0947 4.16926C30.8443 3.94358 30.4383 3.94358 30.1878 4.16926C29.9374 4.39489 29.9374 4.76086 30.1878 4.98662C31.819 6.45673 32.7175 8.41476 32.7175 10.4999C32.7175 12.5851 31.819 14.5431 30.1878 16.0133C29.9374 16.2389 29.9374 16.6049 30.1878 16.8306C30.3131 16.9436 30.4772 17 30.6413 17C30.8054 17 30.9696 16.9436 31.0947 16.8306C32.9682 15.1422 34 12.8939 34 10.4999C34 8.10597 32.9683 5.85772 31.0947 4.16926Z" fill="white"/>
<path d="M35.0947 4.16926C34.8443 3.94358 34.4383 3.94358 34.1878 4.16926C33.9374 4.39489 33.9374 4.76086 34.1878 4.98662C35.819 6.45673 36.7175 8.41476 36.7175 10.4999C36.7175 12.5851 35.819 14.5431 34.1878 16.0133C33.9374 16.2389 33.9374 16.6049 34.1878 16.8306C34.3131 16.9436 34.4772 17 34.6413 17C34.8054 17 34.9696 16.9436 35.0947 16.8306C36.9682 15.1422 38 12.8939 38 10.4999C38 8.10597 36.9683 5.85772 35.0947 4.16926Z" fill="white"/>
<path d="M39.0947 4.16926C38.8443 3.94358 38.4383 3.94358 38.1878 4.16926C37.9374 4.39489 37.9374 4.76086 38.1878 4.98662C39.819 6.45673 40.7175 8.41476 40.7175 10.4999C40.7175 12.5851 39.819 14.5431 38.1878 16.0133C37.9374 16.2389 37.9374 16.6049 38.1878 16.8306C38.3131 16.9436 38.4772 17 38.6413 17C38.8054 17 38.9696 16.9436 39.0947 16.8306C40.9682 15.1422 42 12.8939 42 10.4999C42 8.10597 40.9683 5.85772 39.0947 4.16926Z" fill="white"/>
</svg>
