<svg width="120" height="33" viewBox="0 0 120 33" fill="none" xmlns="http://www.w3.org/2000/svg">
<path d="M16.5003 30.3403C14.6952 30.6573 12.8583 30.7523 10.9581 31.0055L5.16223 14.0302V31.734C3.35707 31.924 1.71023 32.1773 0 32.4307V0H4.81406L11.4014 18.4009V0H16.5003V30.3403ZM26.4766 11.8765C28.4404 11.8765 31.449 11.7814 33.2542 11.7814V16.8486C31.0055 16.8486 28.377 16.8486 26.4766 16.9437V24.4814C29.4538 24.2914 32.4308 24.0379 35.4394 23.9428V28.8198L21.4092 29.9285V0H35.4394V5.0673H26.4766V11.8765ZM54.2834 5.06742H49.0261V28.377C47.3159 28.377 45.6056 28.377 43.959 28.4401V5.06742H38.7018V0H54.2836L54.2834 5.06742ZM62.5177 11.5282H69.4536V16.5954H62.5177V28.092H57.545V0H71.7022V5.0673H62.5177V11.5282ZM79.9365 23.6579C82.8186 23.7211 85.7321 23.9432 88.551 24.1012V29.1053C84.0221 28.82 79.4932 28.5354 74.8693 28.4401V0H79.9365V23.6579ZM92.8264 29.4537C94.4416 29.5488 96.1519 29.6439 97.7987 29.8336V0H92.8264V29.4537ZM120 0L113.571 15.4236L120 32.4307C118.1 32.1773 116.199 31.8289 114.299 31.5122L110.657 22.1379L106.952 30.7523C105.115 30.4354 103.341 30.3403 101.505 30.087L108.029 15.2334L102.138 0H107.585L110.91 8.51941L114.458 0H120Z" fill="#D81F26"/>
</svg>
